<svg viewBox="0 0 800 600" xmlns="http://www.w3.org/2000/svg">
  <defs>
    <linearGradient id="bg-gradient" x1="0%" y1="0%" x2="100%" y2="100%">
      <stop offset="0%" stop-color="#f5f7fa"/>
      <stop offset="100%" stop-color="#e4e7eb"/>
    </linearGradient>
    <linearGradient id="primary-gradient" x1="0%" y1="0%" x2="100%" y2="100%">
      <stop offset="0%" stop-color="#4f46e5"/>
      <stop offset="100%" stop-color="#4338ca"/>
    </linearGradient>
    <linearGradient id="accent-gradient" x1="0%" y1="0%" x2="100%" y2="100%">
      <stop offset="0%" stop-color="#06b6d4"/>
      <stop offset="100%" stop-color="#0891b2"/>
    </linearGradient>
    <linearGradient id="secondary-gradient" x1="0%" y1="0%" x2="100%" y2="100%">
      <stop offset="0%" stop-color="#f59e0b"/>
      <stop offset="100%" stop-color="#d97706"/>
    </linearGradient>
  </defs>

  <!-- Background -->
  <rect width="800" height="600" rx="20" fill="url(#bg-gradient)"/>

  <!-- Browser Window -->
  <rect x="50" y="50" width="700" height="500" rx="10" fill="white" stroke="#e5e7eb" stroke-width="2"/>
  
  <!-- Browser Controls -->
  <rect x="50" y="50" width="700" height="40" rx="10 10 0 0" fill="#f3f4f6"/>
  <circle cx="80" cy="70" r="6" fill="#ef4444"/>
  <circle cx="105" cy="70" r="6" fill="#f59e0b"/>
  <circle cx="130" cy="70" r="6" fill="#10b981"/>
  
  <!-- URL Bar -->
  <rect x="150" y="60" width="450" height="20" rx="5" fill="white" stroke="#e5e7eb" stroke-width="1"/>
  <rect x="170" y="65" width="320" height="10" rx="2" fill="#e5e7eb"/>
  <circle cx="155" cy="70" r="2" fill="#9ca3af"/>
  <circle cx="610" cy="70" r="2" fill="#9ca3af"/>
  
  <!-- Original Website Preview (Left Side) -->
  <rect x="80" y="120" width="300" height="400" rx="5" fill="white" stroke="#e5e7eb" stroke-width="2"/>
  
  <!-- Left Site Header -->
  <rect x="80" y="120" width="300" height="50" rx="5 5 0 0" fill="url(#primary-gradient)"/>
  <rect x="100" y="135" width="80" height="20" rx="3" fill="white" opacity="0.8"/>
  <rect x="210" y="140" width="30" height="10" rx="2" fill="white" opacity="0.6"/>
  <rect x="250" y="140" width="30" height="10" rx="2" fill="white" opacity="0.6"/>
  <rect x="290" y="140" width="30" height="10" rx="2" fill="white" opacity="0.6"/>
  <rect x="330" y="140" width="30" height="10" rx="2" fill="white" opacity="0.6"/>
  
  <!-- Left Site Hero -->
  <rect x="100" y="190" width="260" height="100" rx="5" fill="#f3f4f6"/>
  <rect x="120" y="210" width="150" height="15" rx="2" fill="#6b7280"/>
  <rect x="120" y="235" width="220" height="10" rx="2" fill="#9ca3af"/>
  <rect x="120" y="255" width="220" height="10" rx="2" fill="#9ca3af"/>
  <rect x="120" y="280" width="100" height="30" rx="5" fill="url(#primary-gradient)"/>
  
  <!-- Left Site Content Blocks -->
  <rect x="100" y="310" width="260" height="60" rx="5" fill="#f9fafb" stroke="#e5e7eb" stroke-width="1"/>
  <rect x="120" y="325" width="100" height="10" rx="2" fill="#6b7280"/>
  <rect x="120" y="345" width="220" height="10" rx="2" fill="#9ca3af"/>
  
  <rect x="100" y="380" width="260" height="60" rx="5" fill="#f9fafb" stroke="#e5e7eb" stroke-width="1"/>
  <rect x="120" y="395" width="100" height="10" rx="2" fill="#6b7280"/>
  <rect x="120" y="415" width="220" height="10" rx="2" fill="#9ca3af"/>
  
  <rect x="100" y="450" width="260" height="60" rx="5" fill="#f9fafb" stroke="#e5e7eb" stroke-width="1"/>
  <rect x="120" y="465" width="100" height="10" rx="2" fill="#6b7280"/>
  <rect x="120" y="485" width="220" height="10" rx="2" fill="#9ca3af"/>
  
  <!-- Cloning Process Visuals -->
  <!-- Arrow -->
  <path d="M400 320 L420 320 L420 280 L440 320 L420 360 L420 320" fill="url(#secondary-gradient)"/>
  
  <!-- Processing Visuals -->
  <circle cx="470" cy="220" r="40" fill="url(#accent-gradient)" opacity="0.1"/>
  <circle cx="470" cy="220" r="30" fill="url(#accent-gradient)" opacity="0.2"/>
  <circle cx="470" cy="220" r="20" fill="url(#accent-gradient)" opacity="0.4"/>
  
  <rect x="430" y="280" width="80" height="15" rx="2" fill="#6b7280"/>
  <rect x="440" y="305" width="60" height="10" rx="2" fill="#9ca3af"/>
  <rect x="450" y="325" width="40" height="10" rx="2" fill="#9ca3af"/>
  
  <!-- Code Visualization -->
  <rect x="430" y="350" width="80" height="80" rx="5" fill="#1f2937"/>
  <rect x="440" y="360" width="40" height="5" rx="1" fill="#06b6d4"/>
  <rect x="450" y="370" width="50" height="5" rx="1" fill="#f59e0b"/>
  <rect x="440" y="380" width="60" height="5" rx="1" fill="#4f46e5"/>
  <rect x="450" y="390" width="30" height="5" rx="1" fill="#10b981"/>
  <rect x="440" y="400" width="55" height="5" rx="1" fill="#f59e0b"/>
  <rect x="455" y="410" width="45" height="5" rx="1" fill="#06b6d4"/>
  
  <!-- Cloned Website Preview (Right Side) -->
  <rect x="520" y="120" width="300" height="400" rx="5" fill="white" stroke="#e5e7eb" stroke-width="2"/>
  
  <!-- Right Site Header (Cloned) -->
  <rect x="520" y="120" width="300" height="50" rx="5 5 0 0" fill="url(#primary-gradient)"/>
  <rect x="540" y="135" width="80" height="20" rx="3" fill="white" opacity="0.8"/>
  <rect x="650" y="140" width="30" height="10" rx="2" fill="white" opacity="0.6"/>
  <rect x="690" y="140" width="30" height="10" rx="2" fill="white" opacity="0.6"/>
  <rect x="730" y="140" width="30" height="10" rx="2" fill="white" opacity="0.6"/>
  <rect x="770" y="140" width="30" height="10" rx="2" fill="white" opacity="0.6"/>
  
  <!-- Right Site Hero (Cloned but with Your Product) -->
  <rect x="540" y="190" width="260" height="100" rx="5" fill="#f3f4f6"/>
  <rect x="560" y="210" width="150" height="15" rx="2" fill="#6b7280"/>
  <rect x="560" y="235" width="220" height="10" rx="2" fill="#9ca3af"/>
  <rect x="560" y="255" width="220" height="10" rx="2" fill="#9ca3af"/>
  <rect x="560" y="280" width="100" height="30" rx="5" fill="url(#primary-gradient)"/>
  
  <!-- Modified Content with Your Product Info -->
  <rect x="540" y="310" width="260" height="60" rx="5" fill="#f9fafb" stroke="#e5e7eb" stroke-width="1"/>
  <rect x="560" y="325" width="100" height="10" rx="2" fill="#6b7280"/>
  <rect x="560" y="345" width="220" height="10" rx="2" fill="#9ca3af"/>
  
  <rect x="540" y="380" width="260" height="60" rx="5" fill="#f9fafb" stroke="#e5e7eb" stroke-width="1"/>
  <rect x="560" y="395" width="100" height="10" rx="2" fill="#6b7280"/>
  <rect x="560" y="415" width="220" height="10" rx="2" fill="#9ca3af"/>
  
  <rect x="540" y="450" width="260" height="60" rx="5" fill="#f9fafb" stroke="#e5e7eb" stroke-width="1"/>
  <rect x="560" y="465" width="100" height="10" rx="2" fill="#6b7280"/>
  <rect x="560" y="485" width="220" height="10" rx="2" fill="#9ca3af"/>
  
  <!-- Success Checkmark -->
  <circle cx="670" cy="250" r="40" fill="url(#accent-gradient)" opacity="0.1"/>
  <path d="M650 250 L665 265 L690 235" stroke="#10b981" stroke-width="6" stroke-linecap="round" stroke-linejoin="round" fill="none"/>
</svg>

